<?xml version="1.0" encoding="utf-8"?>
<!-- Generator: Adobe Illustrator 21.0.2, SVG Export Plug-In . SVG Version: 6.00 Build 0)  -->
<svg version="1.1" id="Layer_1" xmlns="http://www.w3.org/2000/svg" xmlns:xlink="http://www.w3.org/1999/xlink" x="0px" y="0px"
	 viewBox="0 0 1494 612" style="enable-background:new 0 0 1494 612;" xml:space="preserve">
<style type="text/css">
	.st0{fill:none;stroke:#F9EFE1;stroke-width:8;stroke-miterlimit:10;}
	.st1{fill:none;stroke:#F9EFE1;stroke-width:24;stroke-miterlimit:10;}
	.st2{fill:#F9EFE1;stroke:#F9EFE1;stroke-miterlimit:10;}
	.st3{fill:none;stroke:#F9EFE1;stroke-width:10;stroke-miterlimit:10;}
	.st4{fill:none;stroke:#F9EFE1;stroke-width:6;stroke-miterlimit:10;}
	.st5{fill:#EE2A7B;}
	.st6{fill:none;}
	.st7{fill:#F7EAD5;}
	.st8{font-family:'Futura-Medium';}
	.st9{font-size:80px;}
	.st10{fill:none;stroke:#F9EFE1;stroke-miterlimit:10;}
	.st11{fill:#E2D2BF;}
	.st12{opacity:0.25;enable-background:new    ;}
	.st13{opacity:0.22;fill:none;stroke:#FFFFFF;stroke-miterlimit:10;}
	.st14{font-size:78.2937px;}
	.st15{fill:none;stroke:#EE2A7B;stroke-width:6;stroke-miterlimit:10;}
</style>
<path class="st0" d="M332.7,188.1c0-55.2,35.4-100,79.1-100c10.9,0,21.3,2.8,30.8,7.9l-8.1,24.2l22.9-13.8
	c20.3,18.1,33.5,48,33.5,81.7"/>
<path class="st0" d="M411.8,288.1"/>
<path class="st1" d="M388.8,394H263.5c-6.6,0-12-5.4-12-12V208.1c0-6.6,5.4-12,12-12h284.6c6.6,0,12,5.4,12,12V382
	c0,6.6-5.4,12-12,12H422.9"/>
<g>
	<g>
		<path class="st2" d="M371.1,342.6c-22.6-23.3-17.3-62.4,11.5-78c26.2-14.2,60.1-0.9,69.7,27.2c6.1,17.8,1.3,37.3-11.7,50.8
			c-2.2,2.3,1.3,5.8,3.5,3.5c24.8-25.5,19.1-68.7-12.5-85.8c-29.3-15.9-66.9-0.8-77.3,30.9c-6.3,19.3-0.8,40.5,13.2,55
			C369.8,348.5,373.3,344.9,371.1,342.6L371.1,342.6z"/>
	</g>
</g>
<path class="st3" d="M422.9,436.5h88.5c6.6,0,12,5.4,12,12v18.8c0,6.6-5.4,12-12,12H300.3c-6.6,0-12-5.4-12-12v-18.8
	c0-6.6,5.4-12,12-12h88.5"/>
<path class="st4" d="M410.9,463.7h-10.1c-6.6,0-12-5.4-12-12V312.3c0-6.6,5.4-12,12-12h10.1c6.6,0,12,5.4,12,12v139.3
	C422.9,458.3,417.5,463.7,410.9,463.7z"/>
<g>
	<g>
		<path class="st2" d="M401.3,140.2c9.3-2.8,18.7-5.4,27.2-10.4c-0.6-0.1-1.2-0.2-1.8-0.2c4.1,3.6,8.3,7.1,12.6,10.5
			c7.8,6.3,15.9,11.6,20.1,21.1c4.5,10.1,5.6,22.3,4.3,33.2c-0.2,1.9,2.8,1.9,3,0c1.4-11.1,0.1-23.4-4.2-33.6
			c-4.1-9.7-11.3-14.9-19.2-21.3c-4.9-3.9-9.7-7.9-14.4-12c-0.5-0.4-1.2-0.6-1.8-0.2c-8.3,4.8-17.4,7.4-26.5,10.1
			C398.6,137.9,399.4,140.8,401.3,140.2L401.3,140.2z"/>
	</g>
</g>
<g>
	<g>
		<path class="st2" d="M359.8,190.2c0.8-10.2,1.8-20.8,7.7-29.5c5.3-7.8,13.3-13.1,22-16.5c1.8-0.7,1-3.6-0.8-2.9
			c-9,3.5-17.3,8.8-23,16.8c-6.7,9.4-8,20.9-8.9,32.2C356.6,192.1,359.6,192.1,359.8,190.2L359.8,190.2z"/>
	</g>
</g>
<g>
	<ellipse transform="matrix(0.8915 -0.453 0.453 0.8915 -18.7505 197.9039)" class="st5" cx="403.8" cy="138.1" rx="5" ry="5"/>
	<ellipse transform="matrix(0.8915 -0.453 0.453 0.8915 -17.9546 192.8278)" class="st5" cx="393.6" cy="133.9" rx="5" ry="5"/>
	<ellipse transform="matrix(0.8915 -0.453 0.453 0.8915 -22.3794 190.1512)" class="st5" cx="385.8" cy="141.8" rx="5" ry="5"/>
	<ellipse transform="matrix(0.8915 -0.453 0.453 0.8915 -26.1769 193.6954)" class="st5" cx="391.3" cy="151.5" rx="5" ry="5"/>
	<ellipse transform="matrix(0.8915 -0.453 0.453 0.8915 -23.849 198.2151)" class="st5" cx="401.9" cy="148.9" rx="5" ry="5"/>
</g>
<ellipse class="st2" cx="431.4" cy="171" rx="6.8" ry="9.1"/>
<ellipse class="st2" cx="398.2" cy="170.6" rx="6.8" ry="9.1"/>
<rect x="618.4" y="188.1" class="st6" width="920" height="257.5"/>
<text transform="matrix(1 0 0 1 618.3944 254.0749)" class="st7 st8 st9">Women </text>
<text transform="matrix(1 0 0 1 618.3944 254.0749)" class="st10 st8 st9">Women </text>
<text transform="matrix(1 0 0 1 618.3944 350.0749)" class="st7 st8 st9">in Computer Science</text>
<text transform="matrix(1 0 0 1 618.3944 350.0749)" class="st10 st8 st9">in Computer Science</text>
<text transform="matrix(1 0 0 1 618.3944 480.0749)" class="st11 st8 st9">De Anza College</text>
<text transform="matrix(1.0218 0 0 1 618.3945 478.5723)" class="st12"><tspan x="0" y="0" class="st13 st8 st14">De Anza College</tspan></text>
<line class="st15" x1="625.3" y1="394" x2="825.1" y2="394"/>
</svg>
